<svg xmlns="http://www.w3.org/2000/svg" viewBox="0 0 600 200">
  <g id="p1"><!-- honey jar with dipper -->
    <rect fill="#E3A34F" x="50" y="84" width="100" height="106" rx="20"/>
    <rect fill="#F2B84B" x="50" y="84" width="100" height="40" rx="20"/>
    <rect fill="#FBF4E4" x="64" y="122" width="72" height="48" rx="10"/>
    <path fill="#C9822F" d="M84 138 l8 14 h-16 Z M100 138 l8 14 h-16 Z M116 138 l8 14 h-16 Z" opacity="0.7"/>
    <rect fill="#8A5A3B" x="44" y="66" width="112" height="24" rx="10"/>
    <rect fill="#A9714B" x="150" y="40" width="10" height="70" rx="5" transform="rotate(24 155 75)"/>
    <g fill="#C9822F" transform="rotate(24 172 36)">
      <rect x="158" y="20" width="30" height="8" rx="4"/>
      <rect x="160" y="32" width="26" height="8" rx="4"/>
      <rect x="163" y="44" width="20" height="8" rx="4"/>
    </g>
  </g>
  <g id="p2" transform="translate(200 0)"><!-- honeycomb cluster + bee -->
    <g fill="#F2B84B" stroke="#C9822F" stroke-width="6" stroke-linejoin="round">
      <path d="M70 76 l30 -17 l30 17 v34 l-30 17 l-30 -17 Z"/>
      <path d="M40 128 l30 -17 l30 17 v34 l-30 17 l-30 -17 Z"/>
      <path d="M100 128 l30 -17 l30 17 v34 l-30 17 l-30 -17 Z"/>
    </g>
    <ellipse fill="#F2B84B" cx="152" cy="52" rx="20" ry="14"/>
    <path fill="#3A2A20" d="M144 40 a14 14 0 0 1 0 24 Z M158 38 a14 14 0 0 1 0 28 l-2 0 a14 14 0 0 0 0 -28 Z"/>
    <circle fill="#3A2A20" cx="170" cy="50" r="9"/>
    <ellipse fill="#FBF4E4" cx="148" cy="30" rx="12" ry="8" opacity="0.85"/>
  </g>
  <g id="p3" transform="translate(400 0)"><!-- rolled beeswax candles -->
    <rect fill="#E3A34F" x="52" y="70" width="40" height="120" rx="10"/>
    <rect fill="#F2B84B" x="108" y="90" width="40" height="100" rx="10"/>
    <g stroke="#C9822F" stroke-width="5" opacity="0.6">
      <line x1="52" y1="94" x2="92" y2="86"/>
      <line x1="52" y1="124" x2="92" y2="116"/>
      <line x1="52" y1="154" x2="92" y2="146"/>
      <line x1="108" y1="116" x2="148" y2="108"/>
      <line x1="108" y1="146" x2="148" y2="138"/>
    </g>
    <rect fill="#6B4632" x="69" y="56" width="6" height="14" rx="3"/>
    <rect fill="#6B4632" x="125" y="76" width="6" height="14" rx="3"/>
    <path fill="#F2B84B" d="M72 36 Q82 48 72 58 Q62 48 72 36 Z"/>
    <path fill="#F2B84B" d="M128 56 Q138 68 128 78 Q118 68 128 56 Z"/>
  </g>
</svg>
